<svg width="168" height="168" viewBox="0 0 168 168" fill="none" xmlns="http://www.w3.org/2000/svg">
<path d="M109 34C109 27.3696 111.634 21.0107 116.322 16.3223C121.011 11.6339 127.37 9 134 9C140.63 9 146.989 11.6339 151.678 16.3223C156.366 21.0107 159 27.3696 159 34C159 40.6304 156.366 46.9893 151.678 51.6777C146.989 56.3661 140.63 59 134 59C127.37 59 121.011 56.3661 116.322 51.6777C111.634 46.9893 109 40.6304 109 34Z" stroke="black" stroke-width="18" stroke-linecap="square"/>
<path d="M16.3223 116.322C11.6339 121.011 9 127.37 9 134C9 140.63 11.6339 146.989 16.3223 151.678C21.0107 156.366 27.3696 159 34 159C40.6304 159 46.9893 156.366 51.6777 151.678C56.3661 146.989 59 140.63 59 134C59 127.37 56.3661 121.011 51.6777 116.322C46.9893 111.634 40.6304 109 34 109C27.3696 109 21.0107 111.634 16.3223 116.322Z" stroke="black" stroke-width="18" stroke-linecap="square"/>
<path d="M9 54C9 52.4471 9 49.786 9 46.5086C9 25.7979 25.7893 9.00001 46.5 9.00002V9.00002C67.2107 9.00004 84 25.7894 84 46.5V121.5C84 142.211 100.789 159 121.5 159V159C142.211 159 159 142.202 159 121.491C159 118.214 159 115.553 159 114" stroke="black" stroke-width="18" stroke-linecap="square"/>
</svg>
